# xmcd
#
# Track frame offsets: 
#        150
#        13432
#        29144
#        43877
#        62228
#        77565
#        93323
#        109506
#        128734
#        145489
#
# Disc length: 2225 seconds
#
# Revision: 0
# Processed by: cddbd v1.5.2PL0 Copyright (c) Steve Scherf et al.
# Submitted via: ExactAudioCopy v0.99pb5
#
DISCID=8e08af0a
DTITLE=Summer Schappell - Signature Series
DYEAR=2009
DGENRE=Country
TTITLE0=Chocolate is a Vitamin
TTITLE1=Roll Down The Windows and Drive
TTITLE2=The Heck I Give (aka The Speck)
TTITLE3=I Had to Think of You
TTITLE4=Only Lonely
TTITLE5=Kinda Cool, Ain't It
TTITLE6=VIP
TTITLE7=God Don't Make Mistakes
TTITLE8=Like a Rock Star
TTITLE9=You Put the Wings on My Dreams
EXTD=
EXTT0=
EXTT1=
EXTT2=
EXTT3=
EXTT4=
EXTT5=
EXTT6=
EXTT7=
EXTT8=
EXTT9=
PLAYORDER=
